<svg width="358" height="401" viewBox="0 0 358 401" fill="none" xmlns="http://www.w3.org/2000/svg">
<rect width="358" height="44" rx="10" fill="#F2F2F2"/>
<path d="M27.5646 15.9842C26.2851 14.7047 24.5839 14 22.7744 14C20.9649 14 19.2637 14.7047 17.9842 15.9842C16.7047 17.2637 16 18.9649 16 20.7744C16 22.5839 16.7047 24.2851 17.9842 25.5646C19.2637 26.8441 20.9649 27.5488 22.7744 27.5488C24.5839 27.5488 26.2851 26.8441 27.5646 25.5646C28.8441 24.2851 29.5488 22.5839 29.5488 20.7744C29.5488 18.9649 28.8441 17.2637 27.5646 15.9842ZM22.7744 26.2561C19.7517 26.2561 17.2926 23.797 17.2926 20.7744C17.2926 17.7517 19.7518 15.2926 22.7744 15.2926C25.7971 15.2926 28.2561 17.7517 28.2561 20.7744C28.2561 23.797 25.797 26.2561 22.7744 26.2561Z" fill="#A7A7A7"/>
<path d="M30.8292 29.0045L26.9955 25.1708C26.7678 24.9431 26.3985 24.9431 26.1708 25.1708C25.9431 25.3986 25.9431 25.7678 26.1708 25.9955L30.0045 29.8292C30.1183 29.9431 30.2676 30 30.4168 30C30.5661 30 30.7154 29.9431 30.8292 29.8292C31.0569 29.6014 31.0569 29.2322 30.8292 29.0045Z" fill="#A7A7A7"/>
<path d="M46.2527 27H44.1746L44.1883 25.9268H46.2527C46.9637 25.9268 47.5561 25.7786 48.0301 25.4824C48.504 25.1816 48.8595 24.7624 49.0965 24.2246C49.338 23.6823 49.4588 23.0488 49.4588 22.3242V21.7158C49.4588 21.1462 49.3904 20.6403 49.2537 20.1982C49.117 19.7516 48.9165 19.3757 48.6521 19.0703C48.3878 18.7604 48.0643 18.5257 47.6814 18.3662C47.3032 18.2067 46.868 18.127 46.3758 18.127H44.1336V17.0469H46.3758C47.0275 17.0469 47.6222 17.1562 48.16 17.375C48.6977 17.5892 49.1603 17.9014 49.5477 18.3115C49.9396 18.7171 50.2404 19.2093 50.45 19.7881C50.6596 20.3623 50.7645 21.0094 50.7645 21.7295V22.3242C50.7645 23.0443 50.6596 23.6937 50.45 24.2725C50.2404 24.8467 49.9373 25.3366 49.5408 25.7422C49.1489 26.1478 48.6749 26.46 48.1189 26.6787C47.5675 26.8929 46.9454 27 46.2527 27ZM44.8787 17.0469V27H43.5594V17.0469H44.8787ZM56.6168 25.7354V21.9277C56.6168 21.6361 56.5576 21.3831 56.4391 21.1689C56.3251 20.9502 56.152 20.7816 55.9195 20.6631C55.6871 20.5446 55.4 20.4854 55.0582 20.4854C54.7392 20.4854 54.4589 20.54 54.2174 20.6494C53.9804 20.7588 53.7936 20.9023 53.6568 21.0801C53.5247 21.2578 53.4586 21.4492 53.4586 21.6543H52.1939C52.1939 21.39 52.2623 21.1279 52.399 20.8682C52.5357 20.6084 52.7317 20.3737 52.9869 20.1641C53.2467 19.9499 53.5566 19.7812 53.9166 19.6582C54.2812 19.5306 54.6868 19.4668 55.1334 19.4668C55.6712 19.4668 56.1451 19.5579 56.5553 19.7402C56.97 19.9225 57.2936 20.1982 57.526 20.5674C57.763 20.932 57.8814 21.39 57.8814 21.9414V25.3867C57.8814 25.6328 57.902 25.8949 57.943 26.1729C57.9885 26.4508 58.0546 26.6901 58.1412 26.8906V27H56.8219C56.7581 26.8542 56.7079 26.6605 56.6715 26.4189C56.635 26.1729 56.6168 25.945 56.6168 25.7354ZM56.8355 22.5156L56.8492 23.4043H55.5709C55.2109 23.4043 54.8896 23.4339 54.607 23.4932C54.3245 23.5479 54.0875 23.6322 53.8961 23.7461C53.7047 23.86 53.5589 24.0036 53.4586 24.1768C53.3583 24.3454 53.3082 24.5436 53.3082 24.7715C53.3082 25.0039 53.3606 25.2158 53.4654 25.4072C53.5702 25.5986 53.7275 25.7513 53.9371 25.8652C54.1513 25.9746 54.4133 26.0293 54.7232 26.0293C55.1106 26.0293 55.4524 25.9473 55.7486 25.7832C56.0449 25.6191 56.2796 25.4186 56.4527 25.1816C56.6305 24.9447 56.7262 24.7145 56.7398 24.4912L57.2799 25.0996C57.248 25.291 57.1614 25.5029 57.0201 25.7354C56.8788 25.9678 56.6897 26.1911 56.4527 26.4053C56.2203 26.6149 55.9423 26.7904 55.6188 26.9316C55.2997 27.0684 54.9397 27.1367 54.5387 27.1367C54.0374 27.1367 53.5976 27.0387 53.2193 26.8428C52.8456 26.6468 52.554 26.3848 52.3443 26.0566C52.1393 25.724 52.0367 25.3525 52.0367 24.9424C52.0367 24.5459 52.1142 24.1973 52.2691 23.8965C52.4241 23.5911 52.6474 23.3382 52.9391 23.1377C53.2307 22.9326 53.5816 22.7777 53.9918 22.6729C54.402 22.568 54.86 22.5156 55.3658 22.5156H56.8355ZM60.8354 20.7656V27H59.5707V19.6035H60.8012L60.8354 20.7656ZM63.1459 19.5625L63.1391 20.7383C63.0342 20.7155 62.934 20.7018 62.8383 20.6973C62.7471 20.6882 62.6423 20.6836 62.5238 20.6836C62.2322 20.6836 61.9747 20.7292 61.7514 20.8203C61.5281 20.9115 61.3389 21.0391 61.184 21.2031C61.029 21.3672 60.906 21.5632 60.8148 21.791C60.7283 22.0143 60.6713 22.2604 60.6439 22.5293L60.2885 22.7344C60.2885 22.2878 60.3318 21.8685 60.4184 21.4766C60.5095 21.0846 60.6485 20.7383 60.8354 20.4375C61.0222 20.1322 61.2592 19.8952 61.5463 19.7266C61.838 19.5534 62.1843 19.4668 62.5854 19.4668C62.6765 19.4668 62.7813 19.4782 62.8998 19.501C63.0183 19.5192 63.1003 19.5397 63.1459 19.5625ZM65.2863 16.5V27H64.0148V16.5H65.2863ZM69.8049 19.6035L66.5783 23.0557L64.7736 24.9287L64.6711 23.582L65.9631 22.0371L68.26 19.6035H69.8049ZM68.6496 27L66.0109 23.4727L66.6672 22.3447L70.1398 27H68.6496ZM78.7752 19.6035H79.9236V26.8428C79.9236 27.4945 79.7915 28.0505 79.5271 28.5107C79.2628 28.971 78.8937 29.3197 78.4197 29.5566C77.9503 29.7982 77.408 29.9189 76.7928 29.9189C76.5376 29.9189 76.2368 29.8779 75.8904 29.7959C75.5486 29.7184 75.2114 29.584 74.8787 29.3926C74.5506 29.2057 74.2749 28.9528 74.0516 28.6338L74.7146 27.8818C75.0245 28.2555 75.3481 28.5153 75.6854 28.6611C76.0271 28.807 76.3644 28.8799 76.6971 28.8799C77.0981 28.8799 77.4445 28.8047 77.7361 28.6543C78.0278 28.5039 78.2534 28.2806 78.4129 27.9844C78.577 27.6927 78.659 27.3327 78.659 26.9043V21.2305L78.7752 19.6035ZM73.6824 23.3838V23.2402C73.6824 22.6751 73.7485 22.1624 73.8807 21.7021C74.0174 21.2373 74.2111 20.8385 74.4617 20.5059C74.7169 20.1732 75.0245 19.918 75.3846 19.7402C75.7446 19.5579 76.1502 19.4668 76.6014 19.4668C77.0662 19.4668 77.4718 19.5488 77.8182 19.7129C78.1691 19.8724 78.4653 20.1071 78.7068 20.417C78.9529 20.7223 79.1466 21.0915 79.2879 21.5244C79.4292 21.9574 79.5271 22.4473 79.5818 22.9941V23.623C79.5317 24.1654 79.4337 24.653 79.2879 25.0859C79.1466 25.5189 78.9529 25.888 78.7068 26.1934C78.4653 26.4987 78.1691 26.7334 77.8182 26.8975C77.4673 27.057 77.0571 27.1367 76.5877 27.1367C76.1456 27.1367 75.7446 27.0433 75.3846 26.8564C75.0291 26.6696 74.7238 26.4076 74.4686 26.0703C74.2133 25.7331 74.0174 25.3366 73.8807 24.8809C73.7485 24.4206 73.6824 23.9215 73.6824 23.3838ZM74.9471 23.2402V23.3838C74.9471 23.7529 74.9835 24.0993 75.0564 24.4229C75.1339 24.7464 75.2501 25.0312 75.4051 25.2773C75.5646 25.5234 75.7674 25.7171 76.0135 25.8584C76.2596 25.9951 76.5535 26.0635 76.8953 26.0635C77.3146 26.0635 77.6609 25.9746 77.9344 25.7969C78.2078 25.6191 78.4243 25.3844 78.5838 25.0928C78.7479 24.8011 78.8755 24.4844 78.9666 24.1426V22.4951C78.9165 22.2445 78.839 22.0029 78.7342 21.7705C78.6339 21.5335 78.5018 21.3239 78.3377 21.1416C78.1782 20.9548 77.9799 20.8066 77.743 20.6973C77.506 20.5879 77.228 20.5332 76.909 20.5332C76.5626 20.5332 76.2641 20.6061 76.0135 20.752C75.7674 20.8932 75.5646 21.0892 75.4051 21.3398C75.2501 21.5859 75.1339 21.873 75.0564 22.2012C74.9835 22.5247 74.9471 22.8711 74.9471 23.2402ZM85.9059 25.7354V21.9277C85.9059 21.6361 85.8466 21.3831 85.7281 21.1689C85.6142 20.9502 85.441 20.7816 85.2086 20.6631C84.9762 20.5446 84.6891 20.4854 84.3473 20.4854C84.0283 20.4854 83.748 20.54 83.5064 20.6494C83.2695 20.7588 83.0826 20.9023 82.9459 21.0801C82.8137 21.2578 82.7477 21.4492 82.7477 21.6543H81.483C81.483 21.39 81.5514 21.1279 81.6881 20.8682C81.8248 20.6084 82.0208 20.3737 82.276 20.1641C82.5357 19.9499 82.8456 19.7812 83.2057 19.6582C83.5702 19.5306 83.9758 19.4668 84.4225 19.4668C84.9602 19.4668 85.4342 19.5579 85.8443 19.7402C86.2591 19.9225 86.5826 20.1982 86.815 20.5674C87.052 20.932 87.1705 21.39 87.1705 21.9414V25.3867C87.1705 25.6328 87.191 25.8949 87.232 26.1729C87.2776 26.4508 87.3437 26.6901 87.4303 26.8906V27H86.1109C86.0471 26.8542 85.997 26.6605 85.9605 26.4189C85.9241 26.1729 85.9059 25.945 85.9059 25.7354ZM86.1246 22.5156L86.1383 23.4043H84.86C84.4999 23.4043 84.1786 23.4339 83.8961 23.4932C83.6135 23.5479 83.3766 23.6322 83.1852 23.7461C82.9938 23.86 82.8479 24.0036 82.7477 24.1768C82.6474 24.3454 82.5973 24.5436 82.5973 24.7715C82.5973 25.0039 82.6497 25.2158 82.7545 25.4072C82.8593 25.5986 83.0165 25.7513 83.2262 25.8652C83.4404 25.9746 83.7024 26.0293 84.0123 26.0293C84.3997 26.0293 84.7415 25.9473 85.0377 25.7832C85.3339 25.6191 85.5686 25.4186 85.7418 25.1816C85.9195 24.9447 86.0152 24.7145 86.0289 24.4912L86.5689 25.0996C86.537 25.291 86.4505 25.5029 86.3092 25.7354C86.1679 25.9678 85.9788 26.1911 85.7418 26.4053C85.5094 26.6149 85.2314 26.7904 84.9078 26.9316C84.5888 27.0684 84.2288 27.1367 83.8277 27.1367C83.3264 27.1367 82.8867 27.0387 82.5084 26.8428C82.1347 26.6468 81.843 26.3848 81.6334 26.0566C81.4283 25.724 81.3258 25.3525 81.3258 24.9424C81.3258 24.5459 81.4033 24.1973 81.5582 23.8965C81.7132 23.5911 81.9365 23.3382 82.2281 23.1377C82.5198 22.9326 82.8707 22.7777 83.2809 22.6729C83.691 22.568 84.149 22.5156 84.6549 22.5156H86.1246ZM90.1176 21.0732V27H88.8461V19.6035H90.0492L90.1176 21.0732ZM89.8578 23.0215L89.2699 23.001C89.2745 22.4951 89.3406 22.028 89.4682 21.5996C89.5958 21.1667 89.7849 20.7907 90.0355 20.4717C90.2862 20.1527 90.5984 19.9066 90.9721 19.7334C91.3458 19.5557 91.7787 19.4668 92.2709 19.4668C92.6173 19.4668 92.9363 19.5169 93.2279 19.6172C93.5196 19.7129 93.7725 19.8656 93.9867 20.0752C94.2009 20.2848 94.3673 20.5537 94.4857 20.8818C94.6042 21.21 94.6635 21.6064 94.6635 22.0713V27H93.3988V22.1328C93.3988 21.7454 93.3327 21.4355 93.2006 21.2031C93.073 20.9707 92.8907 20.8021 92.6537 20.6973C92.4167 20.5879 92.1387 20.5332 91.8197 20.5332C91.446 20.5332 91.1339 20.5993 90.8832 20.7314C90.6326 20.8636 90.432 21.0459 90.2816 21.2783C90.1313 21.5107 90.0219 21.7773 89.9535 22.0781C89.8897 22.3743 89.8578 22.6888 89.8578 23.0215ZM94.6498 22.3242L93.8022 22.584C93.8067 22.1784 93.8728 21.7887 94.0004 21.415C94.1326 21.0413 94.3217 20.7087 94.5678 20.417C94.8184 20.1253 95.126 19.8952 95.4906 19.7266C95.8552 19.5534 96.2722 19.4668 96.7416 19.4668C97.1381 19.4668 97.489 19.5192 97.7943 19.624C98.1042 19.7288 98.364 19.8906 98.5736 20.1094C98.7878 20.3236 98.9496 20.5993 99.059 20.9365C99.1684 21.2738 99.223 21.6748 99.223 22.1396V27H97.9516V22.126C97.9516 21.7113 97.8855 21.39 97.7533 21.1621C97.6257 20.9297 97.4434 20.7679 97.2064 20.6768C96.974 20.5811 96.696 20.5332 96.3725 20.5332C96.0945 20.5332 95.8484 20.5811 95.6342 20.6768C95.42 20.7725 95.24 20.9046 95.0941 21.0732C94.9483 21.2373 94.8367 21.4264 94.7592 21.6406C94.6863 21.8548 94.6498 22.0827 94.6498 22.3242ZM100.83 16.5H102.102V25.5645L101.992 27H100.83V16.5ZM107.099 23.2402V23.3838C107.099 23.9215 107.035 24.4206 106.907 24.8809C106.78 25.3366 106.593 25.7331 106.347 26.0703C106.101 26.4076 105.8 26.6696 105.445 26.8564C105.089 27.0433 104.681 27.1367 104.221 27.1367C103.751 27.1367 103.339 27.057 102.984 26.8975C102.633 26.7334 102.336 26.4987 102.095 26.1934C101.853 25.888 101.66 25.5189 101.514 25.0859C101.373 24.653 101.275 24.1654 101.22 23.623V22.9941C101.275 22.4473 101.373 21.9574 101.514 21.5244C101.66 21.0915 101.853 20.7223 102.095 20.417C102.336 20.1071 102.633 19.8724 102.984 19.7129C103.335 19.5488 103.742 19.4668 104.207 19.4668C104.672 19.4668 105.085 19.5579 105.445 19.7402C105.805 19.918 106.105 20.1732 106.347 20.5059C106.593 20.8385 106.78 21.2373 106.907 21.7021C107.035 22.1624 107.099 22.6751 107.099 23.2402ZM105.827 23.3838V23.2402C105.827 22.8711 105.793 22.5247 105.725 22.2012C105.656 21.873 105.547 21.5859 105.397 21.3398C105.246 21.0892 105.048 20.8932 104.802 20.752C104.556 20.6061 104.253 20.5332 103.893 20.5332C103.574 20.5332 103.296 20.5879 103.059 20.6973C102.826 20.8066 102.628 20.9548 102.464 21.1416C102.3 21.3239 102.166 21.5335 102.061 21.7705C101.96 22.0029 101.885 22.2445 101.835 22.4951V24.1426C101.908 24.4616 102.027 24.7692 102.191 25.0654C102.359 25.3571 102.583 25.5964 102.861 25.7832C103.143 25.9701 103.492 26.0635 103.906 26.0635C104.248 26.0635 104.54 25.9951 104.781 25.8584C105.028 25.7171 105.226 25.5234 105.376 25.2773C105.531 25.0312 105.645 24.7464 105.718 24.4229C105.791 24.0993 105.827 23.7529 105.827 23.3838ZM112.924 25.291V19.6035H114.195V27H112.985L112.924 25.291ZM113.163 23.7324L113.689 23.7188C113.689 24.2109 113.637 24.6667 113.532 25.0859C113.432 25.5007 113.268 25.8607 113.04 26.166C112.812 26.4714 112.514 26.7106 112.145 26.8838C111.775 27.0524 111.326 27.1367 110.798 27.1367C110.438 27.1367 110.107 27.0843 109.807 26.9795C109.51 26.8747 109.255 26.7129 109.041 26.4941C108.827 26.2754 108.66 25.9906 108.542 25.6396C108.428 25.2887 108.371 24.8672 108.371 24.375V19.6035H109.636V24.3887C109.636 24.7214 109.672 24.9971 109.745 25.2158C109.823 25.43 109.925 25.6009 110.053 25.7285C110.185 25.8516 110.331 25.9382 110.49 25.9883C110.654 26.0384 110.823 26.0635 110.996 26.0635C111.534 26.0635 111.96 25.9609 112.274 25.7559C112.589 25.5462 112.814 25.266 112.951 24.915C113.092 24.5596 113.163 24.1654 113.163 23.7324ZM117.088 20.7656V27H115.823V19.6035H117.054L117.088 20.7656ZM119.398 19.5625L119.391 20.7383C119.287 20.7155 119.186 20.7018 119.091 20.6973C118.999 20.6882 118.895 20.6836 118.776 20.6836C118.485 20.6836 118.227 20.7292 118.004 20.8203C117.78 20.9115 117.591 21.0391 117.436 21.2031C117.281 21.3672 117.158 21.5632 117.067 21.791C116.981 22.0143 116.924 22.2604 116.896 22.5293L116.541 22.7344C116.541 22.2878 116.584 21.8685 116.671 21.4766C116.762 21.0846 116.901 20.7383 117.088 20.4375C117.275 20.1322 117.512 19.8952 117.799 19.7266C118.09 19.5534 118.437 19.4668 118.838 19.4668C118.929 19.4668 119.034 19.4782 119.152 19.501C119.271 19.5192 119.353 19.5397 119.398 19.5625ZM124.922 19.6035H126.071V26.8428C126.071 27.4945 125.939 28.0505 125.674 28.5107C125.41 28.971 125.041 29.3197 124.567 29.5566C124.098 29.7982 123.555 29.9189 122.94 29.9189C122.685 29.9189 122.384 29.8779 122.038 29.7959C121.696 29.7184 121.359 29.584 121.026 29.3926C120.698 29.2057 120.422 28.9528 120.199 28.6338L120.862 27.8818C121.172 28.2555 121.495 28.5153 121.833 28.6611C122.174 28.807 122.512 28.8799 122.844 28.8799C123.245 28.8799 123.592 28.8047 123.883 28.6543C124.175 28.5039 124.401 28.2806 124.56 27.9844C124.724 27.6927 124.806 27.3327 124.806 26.9043V21.2305L124.922 19.6035ZM119.83 23.3838V23.2402C119.83 22.6751 119.896 22.1624 120.028 21.7021C120.165 21.2373 120.358 20.8385 120.609 20.5059C120.864 20.1732 121.172 19.918 121.532 19.7402C121.892 19.5579 122.297 19.4668 122.749 19.4668C123.213 19.4668 123.619 19.5488 123.965 19.7129C124.316 19.8724 124.613 20.1071 124.854 20.417C125.1 20.7223 125.294 21.0915 125.435 21.5244C125.576 21.9574 125.674 22.4473 125.729 22.9941V23.623C125.679 24.1654 125.581 24.653 125.435 25.0859C125.294 25.5189 125.1 25.888 124.854 26.1934C124.613 26.4987 124.316 26.7334 123.965 26.8975C123.615 27.057 123.204 27.1367 122.735 27.1367C122.293 27.1367 121.892 27.0433 121.532 26.8564C121.176 26.6696 120.871 26.4076 120.616 26.0703C120.361 25.7331 120.165 25.3366 120.028 24.8809C119.896 24.4206 119.83 23.9215 119.83 23.3838ZM121.094 23.2402V23.3838C121.094 23.7529 121.131 24.0993 121.204 24.4229C121.281 24.7464 121.397 25.0312 121.552 25.2773C121.712 25.5234 121.915 25.7171 122.161 25.8584C122.407 25.9951 122.701 26.0635 123.043 26.0635C123.462 26.0635 123.808 25.9746 124.082 25.7969C124.355 25.6191 124.572 25.3844 124.731 25.0928C124.895 24.8011 125.023 24.4844 125.114 24.1426V22.4951C125.064 22.2445 124.986 22.0029 124.881 21.7705C124.781 21.5335 124.649 21.3239 124.485 21.1416C124.325 20.9548 124.127 20.8066 123.89 20.6973C123.653 20.5879 123.375 20.5332 123.056 20.5332C122.71 20.5332 122.411 20.6061 122.161 20.752C121.915 20.8932 121.712 21.0892 121.552 21.3398C121.397 21.5859 121.281 21.873 121.204 22.2012C121.131 22.5247 121.094 22.8711 121.094 23.2402ZM130.761 27.1367C130.246 27.1367 129.779 27.0501 129.36 26.877C128.945 26.6992 128.587 26.4508 128.287 26.1318C127.99 25.8128 127.762 25.4346 127.603 24.9971C127.443 24.5596 127.364 24.0811 127.364 23.5615V23.2744C127.364 22.6729 127.453 22.1374 127.63 21.668C127.808 21.194 128.05 20.793 128.355 20.4648C128.66 20.1367 129.007 19.8883 129.394 19.7197C129.781 19.5511 130.182 19.4668 130.597 19.4668C131.126 19.4668 131.581 19.5579 131.964 19.7402C132.352 19.9225 132.668 20.1777 132.914 20.5059C133.161 20.8294 133.343 21.2122 133.461 21.6543C133.58 22.0918 133.639 22.5703 133.639 23.0898V23.6572H128.116V22.625H132.374V22.5293C132.356 22.2012 132.288 21.8822 132.169 21.5723C132.055 21.2624 131.873 21.0072 131.622 20.8066C131.372 20.6061 131.03 20.5059 130.597 20.5059C130.31 20.5059 130.046 20.5674 129.804 20.6904C129.563 20.8089 129.355 20.9867 129.182 21.2236C129.009 21.4606 128.874 21.75 128.779 22.0918C128.683 22.4336 128.635 22.8278 128.635 23.2744V23.5615C128.635 23.9124 128.683 24.2428 128.779 24.5527C128.879 24.8581 129.023 25.127 129.209 25.3594C129.401 25.5918 129.631 25.7741 129.9 25.9062C130.173 26.0384 130.483 26.1045 130.829 26.1045C131.276 26.1045 131.654 26.0133 131.964 25.8311C132.274 25.6488 132.545 25.4049 132.778 25.0996L133.543 25.708C133.384 25.9495 133.181 26.1797 132.935 26.3984C132.689 26.6172 132.386 26.7949 132.026 26.9316C131.67 27.0684 131.249 27.1367 130.761 27.1367ZM136.08 20.7656V27H134.816V19.6035H136.046L136.08 20.7656ZM138.391 19.5625L138.384 20.7383C138.279 20.7155 138.179 20.7018 138.083 20.6973C137.992 20.6882 137.887 20.6836 137.769 20.6836C137.477 20.6836 137.22 20.7292 136.996 20.8203C136.773 20.9115 136.584 21.0391 136.429 21.2031C136.274 21.3672 136.151 21.5632 136.06 21.791C135.973 22.0143 135.916 22.2604 135.889 22.5293L135.533 22.7344C135.533 22.2878 135.577 21.8685 135.663 21.4766C135.754 21.0846 135.893 20.7383 136.08 20.4375C136.267 20.1322 136.504 19.8952 136.791 19.7266C137.083 19.5534 137.429 19.4668 137.83 19.4668C137.921 19.4668 138.026 19.4782 138.145 19.501C138.263 19.5192 138.345 19.5397 138.391 19.5625Z" fill="#414141"/>
<g clip-path="url(#clip0_448_1320)">
<path d="M269.923 230.215H267.742V316.404H269.923V230.215Z" fill="#414141"/>
<path d="M290.05 241.199C290.189 271.337 268.996 295.868 268.996 295.868C268.996 295.868 247.578 271.534 247.439 241.396C247.3 211.258 268.493 186.728 268.493 186.728C268.493 186.728 289.911 211.061 290.05 241.199Z" fill="#A7A7A7"/>
<path d="M226.316 270.769H225.194V315.098H226.316V270.769Z" fill="#3F3D56"/>
<path d="M236.668 276.418C236.74 291.919 225.84 304.535 225.84 304.535C225.84 304.535 214.824 292.02 214.752 276.519C214.681 261.018 225.581 248.402 225.581 248.402C225.581 248.402 236.597 260.917 236.668 276.418Z" fill="#A7A7A7"/>
<path d="M248.425 321C265.209 321 278.816 318.913 278.816 316.339C278.816 313.765 265.209 311.679 248.425 311.679C231.641 311.679 218.035 313.765 218.035 316.339C218.035 318.913 231.641 321 248.425 321Z" fill="#414141"/>
<path d="M250.932 207.715C248.357 203.362 243.263 203.159 243.263 203.159C243.263 203.159 238.3 202.524 235.116 209.153C232.148 215.332 228.052 221.298 234.456 222.744L235.613 219.142L236.329 223.013C237.241 223.078 238.156 223.094 239.07 223.06C245.928 222.838 252.46 223.124 252.25 220.662C251.971 217.388 253.409 211.903 250.932 207.715Z" fill="#2F2E41"/>
<path d="M241.66 215.912C241.66 215.912 244.988 220.572 242.991 224.345C240.995 228.118 247.649 232.113 247.649 232.113L252.53 221.46C252.53 221.46 246.762 217.687 248.315 214.136L241.66 215.912Z" fill="#FBBEBE"/>
<path d="M243.878 217.909C247.063 217.909 249.645 215.326 249.645 212.139C249.645 208.952 247.063 206.368 243.878 206.368C240.693 206.368 238.11 208.952 238.11 212.139C238.11 215.326 240.693 217.909 243.878 217.909Z" fill="#FBBEBE"/>
<path d="M223.918 218.809L228.738 212.587C228.738 212.587 230.435 206.066 232.893 206.396C235.351 206.727 231.922 214.218 231.922 214.218L227.133 221.104L223.918 218.809Z" fill="#FBBEBE"/>
<path d="M248.314 301.58L249.867 309.792L253.195 310.68L252.307 300.915L248.314 301.58Z" fill="#FBBEBE"/>
<path d="M281.811 292.703L287.8 300.915L290.24 302.024L292.236 298.695L286.247 290.927L281.811 292.703Z" fill="#FBBEBE"/>
<path d="M246.984 228.562L243.284 223.688C243.284 223.688 236.114 225.011 235.449 225.677C234.784 226.343 237.224 238.549 237.224 238.549C237.224 238.549 237.667 241.878 239.664 243.654L241.66 244.986L258.075 241.657L258.692 234.349C258.917 231.687 258.584 229.008 257.714 226.483C256.843 223.958 255.455 221.642 253.639 219.685L250.783 220.075L246.984 228.562Z" fill="#414141"/>
<path d="M236.336 226.121L235.227 225.677L230.125 225.233C230.125 225.233 228.35 224.789 228.794 223.901C229.238 223.014 229.681 222.792 228.794 222.57C227.907 222.348 227.685 222.126 227.907 221.46C228.129 220.794 229.459 219.463 229.459 219.463L225.688 216.355C225.688 216.355 225.484 216.5 225.154 216.767C223.282 218.284 217.358 223.756 221.696 229.228C226.798 235.664 232.787 239.437 237.667 238.106L236.336 226.121Z" fill="#414141"/>
<path d="M241.216 243.876V246.983C241.216 246.983 239.219 250.756 239.885 254.307C240.55 257.858 240.772 259.634 240.772 259.634C240.845 262.654 241.368 265.646 242.325 268.511C243.878 272.95 238.776 302.024 245.209 302.468C251.642 302.912 255.191 303.356 257.187 301.136C259.184 298.917 253.86 260.744 253.86 260.744C253.86 260.744 272.05 298.695 275.821 297.142C279.592 295.588 289.13 292.037 288.021 290.04C286.912 288.042 258.962 243.654 258.962 243.654L258.075 241.657L241.216 243.876Z" fill="#2F2E41"/>
<path d="M251.864 308.238C251.864 308.238 248.315 308.016 248.315 309.126C248.315 310.236 246.54 314.009 246.54 314.009C246.54 314.009 245.209 318.448 248.759 318.004C252.308 317.56 254.526 313.565 254.526 313.565L253.639 309.348L251.864 308.238Z" fill="#414141"/>
<path d="M288.909 300.471C288.909 300.471 285.803 298.473 286.025 299.805C286.247 301.136 286.469 304.687 288.021 304.909C289.574 305.131 294.233 306.463 294.454 306.907C294.676 307.351 300 309.126 300 306.241C300 303.356 296.673 301.136 296.673 301.136L292.902 298.251C292.902 298.251 290.462 298.029 290.018 299.583C289.574 301.136 288.909 300.471 288.909 300.471Z" fill="#414141"/>
<path d="M243.886 206.866C245.92 206.866 247.569 205.216 247.569 203.181C247.569 201.146 245.92 199.496 243.886 199.496C241.852 199.496 240.203 201.146 240.203 203.181C240.203 205.216 241.852 206.866 243.886 206.866Z" fill="#2F2E41"/>
<path d="M239.815 202.211C239.816 201.301 240.152 200.423 240.761 199.747C241.369 199.07 242.206 198.643 243.111 198.547C242.982 198.533 242.853 198.527 242.723 198.526C241.746 198.526 240.81 198.915 240.119 199.606C239.428 200.297 239.04 201.234 239.04 202.211C239.04 203.189 239.428 204.126 240.119 204.817C240.81 205.508 241.746 205.896 242.723 205.896C242.853 205.896 242.982 205.889 243.111 205.876C242.206 205.78 241.369 205.353 240.761 204.676C240.152 203.999 239.816 203.122 239.815 202.211Z" fill="#2F2E41"/>
<path d="M249.793 207.295L244.761 204.658L237.811 205.737L236.373 212.09L239.952 211.953L240.952 209.618V211.914L242.604 211.851L243.562 208.134L244.162 212.09L250.033 211.971L249.793 207.295Z" fill="#2F2E41"/>
<path d="M249.492 244.39L241.731 244.6C241.731 244.6 235.108 245.89 235.48 243.215C235.851 240.541 242.312 241.476 242.312 241.476L249.384 240.397L249.492 244.39Z" fill="#FBBEBE"/>
<path d="M255.633 219.308C256.023 219.249 256.421 219.331 256.756 219.54C257.091 219.749 257.341 220.07 257.46 220.446C258.979 225.237 263.66 241.267 259.009 243.466C253.532 246.057 249.534 245.943 249.534 245.943L247.395 240.672L249.342 238.844L251.422 225.466L252.418 219.795L255.633 219.308Z" fill="#414141"/>
<path opacity="0.4" d="M254.193 228.229L253.306 237.107L245.542 240.436L254.193 238.439V228.229Z" fill="black"/>
<path d="M212.322 198.922C214.823 199.585 216.986 201.157 218.39 203.332L219.115 204.456L219.152 204.502L231.881 208.229C232.114 208.297 232.312 208.455 232.43 208.667C232.549 208.879 232.58 209.13 232.516 209.364L231.527 212.99C231.495 213.108 231.44 213.218 231.365 213.315C231.29 213.412 231.196 213.493 231.09 213.553C230.984 213.613 230.866 213.652 230.745 213.667C230.623 213.682 230.5 213.673 230.382 213.64L217.65 210.079L217.65 210.079L216.371 210.563C214.016 211.454 211.433 211.541 209.023 210.813L212.322 198.922Z" fill="#3F3D56"/>
<path d="M225.728 209.436C225.848 209.024 225.32 208.506 224.547 208.28C223.775 208.054 223.051 208.205 222.93 208.617C222.81 209.029 223.338 209.547 224.111 209.773C224.883 209.999 225.607 209.848 225.728 209.436Z" fill="#414141"/>
<path d="M225.077 209.816C225.373 209.816 225.612 209.577 225.612 209.281C225.612 208.986 225.373 208.747 225.077 208.747C224.782 208.747 224.543 208.986 224.543 209.281C224.543 209.577 224.782 209.816 225.077 209.816Z" fill="#3F3D56"/>
<path d="M213.386 205.789C214.448 202.514 214.108 199.469 212.628 198.989C211.148 198.509 209.087 200.774 208.026 204.05C206.964 207.325 207.304 210.369 208.784 210.85C210.264 211.33 212.325 209.064 213.386 205.789Z" fill="#FFE031"/>
<path opacity="0.4" d="M212.991 205.673C214.014 202.517 213.735 199.576 212.389 198.936C212.47 198.946 212.55 198.964 212.628 198.989C214.108 199.469 214.448 202.514 213.386 205.789C212.325 209.064 210.264 211.33 208.784 210.85C208.73 210.832 208.678 210.811 208.627 210.787C210.083 210.972 211.985 208.776 212.991 205.673Z" fill="black"/>
<path d="M212.49 198.933L183.599 176.512C178.491 172.518 173.588 168.268 168.911 163.776C160.676 155.922 149.496 149.642 136.48 146.299C104.856 138.177 79.8037 152.579 68.4091 173.726C50.9969 206.041 37.6528 258.48 114.858 230.567C131.743 224.463 148.834 223.814 161.793 220.598L208.719 210.918L212.49 198.933Z" fill="#FFE031"/>
<path d="M125.756 161.204C126.613 161.204 127.309 160.508 127.309 159.65C127.309 158.792 126.613 158.097 125.756 158.097C124.898 158.097 124.203 158.792 124.203 159.65C124.203 160.508 124.898 161.204 125.756 161.204Z" fill="#F2F2F2"/>
<path d="M155.92 163.241H155.515V162.836H155.436V163.241H155.032V163.32H155.436V163.724H155.515V163.32H155.92V163.241Z" fill="#F2F2F2"/>
<path d="M196.513 196.976H196.109V196.571H196.03V196.976H195.626V197.055H196.03V197.459H196.109V197.055H196.513V196.976Z" fill="#F2F2F2"/>
<path d="M193.63 207.407H193.226V207.002H193.147V207.407H192.743V207.486H193.147V207.89H193.226V207.486H193.63V207.407Z" fill="#F2F2F2"/>
<path d="M69.6295 216.285H69.2253V215.88H69.1464V216.285H68.7422V216.364H69.1464V216.768H69.2253V216.364H69.6295V216.285Z" fill="#F2F2F2"/>
<path d="M87.3756 167.902H86.9714V167.498H86.8924V167.902H86.4883V167.981H86.8924V168.385H86.9714V167.981H87.3756V167.902Z" fill="#F2F2F2"/>
<path d="M156.363 209.183H155.959V208.778H155.88V209.183H155.476V209.262H155.88V209.666H155.959V209.262H156.363V209.183Z" fill="#F2F2F2"/>
<path d="M113.995 153.698H113.591V153.293H113.512V153.698H113.107V153.777H113.512V154.181H113.591V153.777H113.995V153.698Z" fill="#F2F2F2"/>
<path d="M114.15 185.652L113.646 185.73C113.804 186.737 113.928 187.767 114.019 188.786L114.527 188.741C114.436 187.709 114.31 186.671 114.15 185.652Z" fill="#E6E6E6"/>
<path d="M112.772 179.584L112.284 179.733C112.579 180.709 112.843 181.71 113.067 182.707L113.566 182.593C113.338 181.586 113.069 180.574 112.772 179.584Z" fill="#E6E6E6"/>
<path d="M110.574 173.765L110.11 173.978C110.536 174.908 110.936 175.862 111.297 176.817L111.774 176.637C111.408 175.672 111.007 174.704 110.574 173.765Z" fill="#E6E6E6"/>
<path d="M107.601 168.31L107.171 168.583C107.719 169.444 108.245 170.336 108.733 171.23L109.181 170.986C108.688 170.081 108.156 169.18 107.601 168.31Z" fill="#E6E6E6"/>
<path d="M103.906 163.31L103.518 163.64C104.179 164.417 104.822 165.229 105.43 166.051L105.838 165.746C105.226 164.916 104.576 164.095 103.906 163.31Z" fill="#E6E6E6"/>
<path d="M99.562 158.857L99.2227 159.237C99.9857 159.918 100.733 160.635 101.445 161.365L101.811 161.008C101.09 160.269 100.334 159.545 99.562 158.857Z" fill="#E6E6E6"/>
<path d="M94.6553 155.036L94.3691 155.457C95.2165 156.028 96.055 156.636 96.8603 157.264L97.1752 156.862C96.3589 156.227 95.5115 155.613 94.6553 155.036Z" fill="#E6E6E6"/>
<path d="M90.1904 152.381V152.958C90.7206 153.235 91.2463 153.526 91.761 153.823L92.0161 153.382C91.4171 153.036 90.8086 152.702 90.1904 152.381Z" fill="#E6E6E6"/>
<path d="M114.185 191.934L114.694 191.925C114.704 192.44 114.705 192.958 114.697 193.464L114.187 193.456C114.194 192.956 114.194 192.443 114.185 191.934Z" fill="#E6E6E6"/>
<path d="M84.2028 229.374L83.6992 229.452C83.8567 230.459 83.9809 231.489 84.0719 232.508L84.5799 232.463C84.4889 231.431 84.3625 230.393 84.2028 229.374Z" fill="#E6E6E6"/>
<path d="M82.8259 223.306L82.3379 223.455C82.6329 224.431 82.8969 225.432 83.1209 226.429L83.62 226.316C83.3916 225.308 83.1232 224.296 82.8259 223.306Z" fill="#E6E6E6"/>
<path d="M80.6277 217.487L80.1641 217.7C80.59 218.63 80.9893 219.584 81.3508 220.538L81.8278 220.359C81.4617 219.393 81.0602 218.426 80.6277 217.487Z" fill="#E6E6E6"/>
<path d="M77.655 212.032L77.2246 212.305C77.7725 213.166 78.2983 214.058 78.7863 214.952L79.2344 214.708C78.7419 213.803 78.2095 212.902 77.655 212.032Z" fill="#E6E6E6"/>
<path d="M73.9595 207.031L73.5713 207.362C74.2323 208.139 74.8756 208.951 75.4834 209.772L75.8916 209.468C75.2793 208.638 74.6294 207.817 73.9595 207.031Z" fill="#E6E6E6"/>
<path d="M69.6158 202.58L69.2764 202.959C70.0394 203.64 70.787 204.357 71.4991 205.087L71.8651 204.73C71.1442 203.991 70.3877 203.268 69.6158 202.58Z" fill="#E6E6E6"/>
<path d="M64.709 198.757L64.4229 199.179C65.2702 199.749 66.1087 200.358 66.914 200.986L67.229 200.584C66.4126 199.949 65.5653 199.334 64.709 198.757Z" fill="#E6E6E6"/>
<path d="M60.2441 196.103V196.68C60.7743 196.958 61.3 197.248 61.8147 197.546L62.0698 197.104C61.4708 196.758 60.8623 196.424 60.2441 196.103Z" fill="#E6E6E6"/>
<path d="M84.2373 235.656L84.7472 235.647C84.7566 236.162 84.7573 236.68 84.7493 237.186L84.2394 237.178C84.2472 236.678 84.2465 236.166 84.2373 235.656Z" fill="#E6E6E6"/>
<path d="M186.687 207.402L186.184 207.48C186.341 208.487 186.465 209.517 186.556 210.536L187.064 210.491C186.973 209.459 186.847 208.421 186.687 207.402Z" fill="#E6E6E6"/>
<path d="M185.309 201.334L184.821 201.483C185.116 202.46 185.38 203.461 185.604 204.457L186.103 204.344C185.875 203.336 185.607 202.324 185.309 201.334Z" fill="#E6E6E6"/>
<path d="M183.111 195.515L182.647 195.728C183.073 196.658 183.473 197.612 183.834 198.567L184.311 198.387C183.945 197.422 183.544 196.454 183.111 195.515Z" fill="#E6E6E6"/>
<path d="M180.138 190.06L179.708 190.333C180.256 191.194 180.782 192.086 181.27 192.98L181.718 192.736C181.225 191.831 180.693 190.93 180.138 190.06Z" fill="#E6E6E6"/>
<path d="M176.443 185.06L176.055 185.39C176.716 186.167 177.359 186.979 177.967 187.801L178.375 187.496C177.763 186.666 177.113 185.845 176.443 185.06Z" fill="#E6E6E6"/>
<path d="M172.099 180.607L171.76 180.987C172.523 181.668 173.27 182.385 173.982 183.115L174.348 182.758C173.628 182.019 172.871 181.295 172.099 180.607Z" fill="#E6E6E6"/>
<path d="M167.192 176.786L166.906 177.207C167.754 177.778 168.592 178.386 169.397 179.014L169.712 178.612C168.896 177.977 168.049 177.363 167.192 176.786Z" fill="#E6E6E6"/>
<path d="M162.728 174.131V174.708C163.258 174.986 163.783 175.277 164.298 175.574L164.553 175.132C163.954 174.786 163.346 174.452 162.728 174.131Z" fill="#E6E6E6"/>
<path d="M186.722 213.684L187.232 213.675C187.241 214.19 187.242 214.708 187.234 215.214L186.724 215.206C186.732 214.706 186.731 214.193 186.722 213.684Z" fill="#E6E6E6"/>
<path d="M88.1176 188.365H87.7416V187.988H87.6682V188.365H87.292V188.438H87.6682V188.814H87.7416V188.438H88.1176V188.365Z" fill="#F2F2F2"/>
<path d="M83.7827 211.081H83.4067V210.705H83.3332V211.081H82.957V211.155H83.3332V211.531H83.4067V211.155H83.7827V211.081Z" fill="#F2F2F2"/>
<path d="M71.0639 230.991H70.6877V230.615H70.6143V230.991H70.2383V231.064H70.6143V231.441H70.6877V231.064H71.0639V230.991Z" fill="#F2F2F2"/>
<path d="M106.446 205.74C102.809 200.332 101.23 193.799 101.995 187.325C102.76 180.852 105.818 174.868 110.615 170.457C115.412 166.046 121.63 163.502 128.141 163.284C134.652 163.067 141.026 165.191 146.106 169.272C151.186 173.353 154.636 179.12 155.83 185.528C157.025 191.936 155.885 198.559 152.617 204.198C149.349 209.837 144.169 214.117 138.018 216.263C131.866 218.409 125.149 218.278 119.086 215.894C118.693 217.298 117.958 218.582 116.947 219.632C115.936 220.682 114.681 221.465 113.293 221.91C111.906 222.356 110.43 222.45 108.997 222.185C107.564 221.92 106.219 221.303 105.083 220.39C103.947 219.478 103.055 218.297 102.486 216.955C101.918 215.612 101.691 214.15 101.826 212.698C101.961 211.247 102.454 209.851 103.26 208.637C104.066 207.423 105.161 206.427 106.446 205.74Z" fill="#414141"/>
<path d="M128.896 174.947C135.141 174.947 139.438 178.413 139.438 183.395C139.438 186.694 137.839 188.977 134.758 190.793C131.86 192.476 130.878 193.709 130.878 195.842C130.878 196.015 130.844 196.186 130.778 196.345C130.712 196.505 130.615 196.65 130.493 196.773C130.37 196.895 130.225 196.992 130.066 197.058C129.906 197.124 129.735 197.158 129.562 197.158H126.369C126.028 197.158 125.701 197.026 125.456 196.789C125.21 196.552 125.067 196.229 125.055 195.888L125.049 195.725C124.766 192.293 125.965 190.16 128.979 188.394C131.794 186.711 132.976 185.644 132.976 183.578C132.976 181.512 130.978 179.996 128.496 179.996C126.61 179.996 125.118 180.914 124.433 182.414C124.192 182.921 123.811 183.349 123.335 183.647C122.859 183.945 122.308 184.1 121.746 184.095C119.583 184.095 118.154 181.793 119.166 179.88C120.766 176.854 124.143 174.947 128.896 174.947ZM124.516 203.507C124.516 201.59 126.115 200.074 128.08 200.074C130.062 200.074 131.661 201.574 131.661 203.507C131.661 205.439 130.062 206.939 128.08 206.939C126.098 206.939 124.516 205.439 124.516 203.507Z" fill="#FFE031"/>
</g>
<path d="M144.28 388.047V398H142.954L137.943 390.323V398H136.624V388.047H137.943L142.974 395.744V388.047H144.28ZM145.792 394.384V394.227C145.792 393.693 145.869 393.199 146.024 392.743C146.179 392.283 146.402 391.884 146.694 391.547C146.986 391.205 147.339 390.941 147.754 390.754C148.168 390.562 148.633 390.467 149.148 390.467C149.668 390.467 150.135 390.562 150.549 390.754C150.969 390.941 151.324 391.205 151.616 391.547C151.912 391.884 152.138 392.283 152.293 392.743C152.448 393.199 152.525 393.693 152.525 394.227V394.384C152.525 394.917 152.448 395.411 152.293 395.867C152.138 396.323 151.912 396.722 151.616 397.063C151.324 397.401 150.971 397.665 150.556 397.856C150.146 398.043 149.681 398.137 149.162 398.137C148.642 398.137 148.175 398.043 147.76 397.856C147.346 397.665 146.99 397.401 146.694 397.063C146.402 396.722 146.179 396.323 146.024 395.867C145.869 395.411 145.792 394.917 145.792 394.384ZM147.056 394.227V394.384C147.056 394.753 147.1 395.102 147.186 395.43C147.273 395.753 147.403 396.04 147.576 396.291C147.754 396.542 147.975 396.74 148.239 396.886C148.503 397.027 148.811 397.098 149.162 397.098C149.508 397.098 149.811 397.027 150.071 396.886C150.335 396.74 150.554 396.542 150.727 396.291C150.9 396.04 151.03 395.753 151.117 395.43C151.208 395.102 151.254 394.753 151.254 394.384V394.227C151.254 393.862 151.208 393.518 151.117 393.194C151.03 392.866 150.898 392.577 150.72 392.326C150.547 392.071 150.328 391.87 150.064 391.725C149.804 391.579 149.499 391.506 149.148 391.506C148.802 391.506 148.496 391.579 148.232 391.725C147.972 391.87 147.754 392.071 147.576 392.326C147.403 392.577 147.273 392.866 147.186 393.194C147.1 393.518 147.056 393.862 147.056 394.227ZM156.908 390.604V391.574H152.909V390.604H156.908ZM154.262 388.806H155.527V396.168C155.527 396.419 155.565 396.608 155.643 396.735C155.72 396.863 155.821 396.947 155.944 396.988C156.067 397.029 156.199 397.05 156.34 397.05C156.445 397.05 156.554 397.041 156.668 397.022C156.787 397 156.876 396.981 156.935 396.968L156.942 398C156.842 398.032 156.709 398.062 156.545 398.089C156.386 398.121 156.192 398.137 155.964 398.137C155.654 398.137 155.37 398.075 155.11 397.952C154.85 397.829 154.643 397.624 154.488 397.337C154.337 397.045 154.262 396.653 154.262 396.161V388.806ZM159.356 387.5V398H158.091V387.5H159.356ZM159.055 394.021L158.529 394.001C158.533 393.495 158.608 393.028 158.754 392.6C158.9 392.167 159.105 391.791 159.369 391.472C159.634 391.153 159.948 390.907 160.313 390.733C160.682 390.556 161.09 390.467 161.536 390.467C161.901 390.467 162.229 390.517 162.521 390.617C162.812 390.713 163.061 390.868 163.266 391.082C163.475 391.296 163.635 391.574 163.744 391.916C163.854 392.253 163.908 392.666 163.908 393.153V398H162.637V393.14C162.637 392.752 162.58 392.442 162.466 392.21C162.352 391.973 162.186 391.802 161.967 391.697C161.748 391.588 161.479 391.533 161.16 391.533C160.846 391.533 160.559 391.599 160.299 391.731C160.044 391.864 159.823 392.046 159.636 392.278C159.454 392.511 159.31 392.777 159.205 393.078C159.105 393.374 159.055 393.689 159.055 394.021ZM166.876 390.604V398H165.604V390.604H166.876ZM165.509 388.642C165.509 388.437 165.57 388.263 165.693 388.122C165.821 387.981 166.008 387.91 166.254 387.91C166.495 387.91 166.68 387.981 166.808 388.122C166.94 388.263 167.006 388.437 167.006 388.642C167.006 388.838 166.94 389.006 166.808 389.147C166.68 389.284 166.495 389.353 166.254 389.353C166.008 389.353 165.821 389.284 165.693 389.147C165.57 389.006 165.509 388.838 165.509 388.642ZM169.871 392.183V398H168.606V390.604H169.803L169.871 392.183ZM169.57 394.021L169.044 394.001C169.048 393.495 169.124 393.028 169.269 392.6C169.415 392.167 169.62 391.791 169.885 391.472C170.149 391.153 170.463 390.907 170.828 390.733C171.197 390.556 171.605 390.467 172.052 390.467C172.416 390.467 172.744 390.517 173.036 390.617C173.328 390.713 173.576 390.868 173.781 391.082C173.991 391.296 174.15 391.574 174.26 391.916C174.369 392.253 174.424 392.666 174.424 393.153V398H173.152V393.14C173.152 392.752 173.095 392.442 172.981 392.21C172.867 391.973 172.701 391.802 172.482 391.697C172.263 391.588 171.995 391.533 171.676 391.533C171.361 391.533 171.074 391.599 170.814 391.731C170.559 391.864 170.338 392.046 170.151 392.278C169.969 392.511 169.825 392.777 169.721 393.078C169.62 393.374 169.57 393.689 169.57 394.021ZM180.837 390.604H181.985V397.843C181.985 398.494 181.853 399.05 181.588 399.511C181.324 399.971 180.955 400.32 180.481 400.557C180.012 400.798 179.469 400.919 178.854 400.919C178.599 400.919 178.298 400.878 177.952 400.796C177.61 400.718 177.273 400.584 176.94 400.393C176.612 400.206 176.336 399.953 176.113 399.634L176.776 398.882C177.086 399.256 177.409 399.515 177.747 399.661C178.088 399.807 178.426 399.88 178.758 399.88C179.159 399.88 179.506 399.805 179.797 399.654C180.089 399.504 180.315 399.281 180.474 398.984C180.638 398.693 180.72 398.333 180.72 397.904V392.23L180.837 390.604ZM175.744 394.384V394.24C175.744 393.675 175.81 393.162 175.942 392.702C176.079 392.237 176.272 391.839 176.523 391.506C176.778 391.173 177.086 390.918 177.446 390.74C177.806 390.558 178.212 390.467 178.663 390.467C179.128 390.467 179.533 390.549 179.879 390.713C180.23 390.872 180.527 391.107 180.768 391.417C181.014 391.722 181.208 392.091 181.349 392.524C181.49 392.957 181.588 393.447 181.643 393.994V394.623C181.593 395.165 181.495 395.653 181.349 396.086C181.208 396.519 181.014 396.888 180.768 397.193C180.527 397.499 180.23 397.733 179.879 397.897C179.529 398.057 179.118 398.137 178.649 398.137C178.207 398.137 177.806 398.043 177.446 397.856C177.09 397.67 176.785 397.408 176.53 397.07C176.275 396.733 176.079 396.337 175.942 395.881C175.81 395.421 175.744 394.922 175.744 394.384ZM177.008 394.24V394.384C177.008 394.753 177.045 395.099 177.118 395.423C177.195 395.746 177.311 396.031 177.466 396.277C177.626 396.523 177.829 396.717 178.075 396.858C178.321 396.995 178.615 397.063 178.957 397.063C179.376 397.063 179.722 396.975 179.996 396.797C180.269 396.619 180.486 396.384 180.645 396.093C180.809 395.801 180.937 395.484 181.028 395.143V393.495C180.978 393.244 180.9 393.003 180.796 392.771C180.695 392.534 180.563 392.324 180.399 392.142C180.24 391.955 180.041 391.807 179.804 391.697C179.567 391.588 179.289 391.533 178.97 391.533C178.624 391.533 178.325 391.606 178.075 391.752C177.829 391.893 177.626 392.089 177.466 392.34C177.311 392.586 177.195 392.873 177.118 393.201C177.045 393.525 177.008 393.871 177.008 394.24ZM188.665 398H187.401V389.824C187.401 389.291 187.496 388.842 187.688 388.478C187.884 388.108 188.164 387.83 188.529 387.644C188.893 387.452 189.326 387.356 189.827 387.356C189.973 387.356 190.119 387.366 190.265 387.384C190.415 387.402 190.561 387.429 190.702 387.466L190.634 388.498C190.538 388.475 190.429 388.459 190.306 388.45C190.187 388.441 190.069 388.437 189.95 388.437C189.682 388.437 189.449 388.491 189.253 388.601C189.062 388.705 188.916 388.86 188.816 389.065C188.715 389.271 188.665 389.523 188.665 389.824V398ZM190.237 390.604V391.574H186.232V390.604H190.237ZM191.011 394.384V394.227C191.011 393.693 191.088 393.199 191.243 392.743C191.398 392.283 191.621 391.884 191.913 391.547C192.205 391.205 192.558 390.941 192.973 390.754C193.387 390.562 193.852 390.467 194.367 390.467C194.887 390.467 195.354 390.562 195.769 390.754C196.188 390.941 196.543 391.205 196.835 391.547C197.131 391.884 197.357 392.283 197.512 392.743C197.667 393.199 197.744 393.693 197.744 394.227V394.384C197.744 394.917 197.667 395.411 197.512 395.867C197.357 396.323 197.131 396.722 196.835 397.063C196.543 397.401 196.19 397.665 195.775 397.856C195.365 398.043 194.9 398.137 194.381 398.137C193.861 398.137 193.394 398.043 192.979 397.856C192.565 397.665 192.209 397.401 191.913 397.063C191.621 396.722 191.398 396.323 191.243 395.867C191.088 395.411 191.011 394.917 191.011 394.384ZM192.275 394.227V394.384C192.275 394.753 192.319 395.102 192.405 395.43C192.492 395.753 192.622 396.04 192.795 396.291C192.973 396.542 193.194 396.74 193.458 396.886C193.722 397.027 194.03 397.098 194.381 397.098C194.727 397.098 195.03 397.027 195.29 396.886C195.554 396.74 195.773 396.542 195.946 396.291C196.119 396.04 196.249 395.753 196.336 395.43C196.427 395.102 196.473 394.753 196.473 394.384V394.227C196.473 393.862 196.427 393.518 196.336 393.194C196.249 392.866 196.117 392.577 195.939 392.326C195.766 392.071 195.548 391.87 195.283 391.725C195.023 391.579 194.718 391.506 194.367 391.506C194.021 391.506 193.715 391.579 193.451 391.725C193.191 391.87 192.973 392.071 192.795 392.326C192.622 392.577 192.492 392.866 192.405 393.194C192.319 393.518 192.275 393.862 192.275 394.227ZM203.555 396.291V390.604H204.827V398H203.617L203.555 396.291ZM203.795 394.732L204.321 394.719C204.321 395.211 204.269 395.667 204.164 396.086C204.064 396.501 203.9 396.861 203.672 397.166C203.444 397.471 203.145 397.711 202.776 397.884C202.407 398.052 201.958 398.137 201.429 398.137C201.069 398.137 200.739 398.084 200.438 397.979C200.142 397.875 199.887 397.713 199.673 397.494C199.458 397.275 199.292 396.991 199.174 396.64C199.06 396.289 199.003 395.867 199.003 395.375V390.604H200.267V395.389C200.267 395.721 200.304 395.997 200.377 396.216C200.454 396.43 200.557 396.601 200.684 396.729C200.817 396.852 200.962 396.938 201.122 396.988C201.286 397.038 201.455 397.063 201.628 397.063C202.165 397.063 202.592 396.961 202.906 396.756C203.221 396.546 203.446 396.266 203.583 395.915C203.724 395.56 203.795 395.165 203.795 394.732ZM207.719 392.183V398H206.455V390.604H207.651L207.719 392.183ZM207.419 394.021L206.892 394.001C206.897 393.495 206.972 393.028 207.118 392.6C207.264 392.167 207.469 391.791 207.733 391.472C207.997 391.153 208.312 390.907 208.676 390.733C209.046 390.556 209.453 390.467 209.9 390.467C210.265 390.467 210.593 390.517 210.884 390.617C211.176 390.713 211.424 390.868 211.629 391.082C211.839 391.296 211.999 391.574 212.108 391.916C212.217 392.253 212.272 392.666 212.272 393.153V398H211.001V393.14C211.001 392.752 210.944 392.442 210.83 392.21C210.716 391.973 210.549 391.802 210.331 391.697C210.112 391.588 209.843 391.533 209.524 391.533C209.21 391.533 208.922 391.599 208.663 391.731C208.407 391.864 208.186 392.046 208 392.278C207.817 392.511 207.674 392.777 207.569 393.078C207.469 393.374 207.419 393.689 207.419 394.021ZM218.555 396.564V387.5H219.827V398H218.664L218.555 396.564ZM213.579 394.384V394.24C213.579 393.675 213.647 393.162 213.784 392.702C213.925 392.237 214.123 391.839 214.378 391.506C214.638 391.173 214.946 390.918 215.301 390.74C215.661 390.558 216.062 390.467 216.504 390.467C216.969 390.467 217.375 390.549 217.721 390.713C218.072 390.872 218.368 391.107 218.61 391.417C218.856 391.722 219.05 392.091 219.191 392.524C219.332 392.957 219.43 393.447 219.485 393.994V394.623C219.435 395.165 219.337 395.653 219.191 396.086C219.05 396.519 218.856 396.888 218.61 397.193C218.368 397.499 218.072 397.733 217.721 397.897C217.37 398.057 216.96 398.137 216.491 398.137C216.058 398.137 215.661 398.043 215.301 397.856C214.946 397.67 214.638 397.408 214.378 397.07C214.123 396.733 213.925 396.337 213.784 395.881C213.647 395.421 213.579 394.922 213.579 394.384ZM214.85 394.24V394.384C214.85 394.753 214.886 395.099 214.959 395.423C215.037 395.746 215.155 396.031 215.315 396.277C215.474 396.523 215.677 396.717 215.923 396.858C216.169 396.995 216.463 397.063 216.805 397.063C217.224 397.063 217.568 396.975 217.837 396.797C218.111 396.619 218.329 396.384 218.494 396.093C218.658 395.801 218.785 395.484 218.876 395.143V393.495C218.822 393.244 218.742 393.003 218.637 392.771C218.537 392.534 218.405 392.324 218.241 392.142C218.081 391.955 217.883 391.807 217.646 391.697C217.413 391.588 217.138 391.533 216.819 391.533C216.472 391.533 216.174 391.606 215.923 391.752C215.677 391.893 215.474 392.089 215.315 392.34C215.155 392.586 215.037 392.873 214.959 393.201C214.886 393.525 214.85 393.871 214.85 394.24Z" fill="#414141"/>
<defs>
<clipPath id="clip0_448_1320">
<rect width="245" height="177" fill="white" transform="translate(55 144)"/>
</clipPath>
</defs>
</svg>
